<?xml version="1.0" standalone="no"?>
<!DOCTYPE svg PUBLIC "-//W3C//DTD SVG 20010904//EN"
 "http://www.w3.org/TR/2001/REC-SVG-20010904/DTD/svg10.dtd">
<svg version="1.0" xmlns="http://www.w3.org/2000/svg"
 width="1663.000000pt" height="423.000000pt" viewBox="0 0 1663.000000 423.000000"
 preserveAspectRatio="xMidYMid meet">

<g transform="translate(0.000000,423.000000) scale(0.100000,-0.100000)"
fill="#000000" stroke="none">
<path d="M1749 4191 l-29 -29 0 -217 0 -217 29 -29 c59 -58 159 -29 175 52 10
49 7 375 -3 402 -28 72 -118 92 -172 38z"/>
<path d="M6628 3769 c-236 -31 -451 -203 -548 -438 -84 -206 -81 -457 10 -657
135 -299 448 -470 750 -410 154 31 293 115 401 244 51 61 56 74 33 93 -15 12
-21 9 -53 -31 -130 -164 -287 -248 -476 -257 -182 -9 -326 48 -461 182 -137
135 -203 285 -212 481 -6 145 13 235 80 373 42 87 62 116 126 180 247 245 606
253 857 19 41 -38 84 -85 96 -104 l22 -36 20 20 c20 20 20 21 2 49 -29 44
-114 131 -166 168 -137 101 -313 146 -481 124z"/>
<path d="M423 3685 c-48 -41 -61 -81 -39 -122 8 -15 77 -90 153 -165 l140
-138 47 0 c52 0 90 27 102 74 12 51 -7 80 -139 214 -115 117 -184 172 -215
172 -5 0 -27 -16 -49 -35z"/>
<path d="M3138 3707 c-37 -16 -195 -163 -270 -250 -55 -64 -60 -73 -54 -105 3
-19 18 -48 32 -64 23 -23 36 -28 74 -28 l46 0 152 153 c139 140 152 157 152
189 0 29 -8 43 -45 77 -49 45 -49 45 -87 28z"/>
<path d="M3950 3685 l0 -25 420 0 420 0 0 25 0 25 -420 0 -420 0 0 -25z"/>
<path d="M4920 3010 l0 -700 25 0 25 0 0 700 0 700 -25 0 -25 0 0 -700z"/>
<path d="M5030 3010 l0 -700 25 0 25 0 0 700 0 700 -25 0 -25 0 0 -700z"/>
<path d="M5140 3010 l0 -700 25 0 25 0 0 700 0 700 -25 0 -25 0 0 -700z"/>
<path d="M5250 3010 l0 -700 325 0 325 0 0 30 0 30 -300 0 -300 0 0 30 0 30
300 0 300 0 0 30 0 30 -297 2 -298 3 0 30 0 30 298 3 297 2 0 25 0 25 -297 2
-298 3 -3 123 -3 122 156 0 155 0 0 30 0 30 -156 0 -155 0 3 33 3 32 153 3
152 3 0 24 0 24 -152 3 -153 3 0 30 0 30 153 3 152 3 0 24 0 24 -152 3 -153 3
-3 123 -3 122 301 0 300 0 0 30 0 30 -301 0 -300 0 3 33 3 32 298 3 297 2 0
25 0 25 -297 2 -298 3 0 30 0 30 298 3 297 2 0 25 0 25 -325 0 -325 0 0 -700z"/>
<path d="M7410 3010 l0 -700 25 0 25 0 0 700 0 700 -25 0 -25 0 0 -700z"/>
<path d="M7520 3010 l0 -700 25 0 25 0 0 700 0 700 -25 0 -25 0 0 -700z"/>
<path d="M7630 3010 l0 -700 25 0 25 0 0 700 0 700 -25 0 -25 0 0 -700z"/>
<path d="M7740 3010 l0 -700 25 0 25 0 0 275 0 275 260 0 260 0 0 -275 0 -275
25 0 25 0 0 700 0 700 -25 0 -25 0 -2 -272 -3 -273 -255 0 -255 0 -3 273 -2
272 -25 0 -25 0 0 -700z m565 65 l0 -30 -255 0 c-238 0 -255 1 -258 18 -9 47
-9 48 260 45 l253 -3 0 -30z m3 -122 l3 -33 -260 0 -261 0 0 28 c0 16 3 32 7
36 4 3 119 5 257 4 l251 -3 3 -32z"/>
<path d="M8420 3010 l0 -700 25 0 25 0 0 700 0 700 -25 0 -25 0 0 -700z"/>
<path d="M8530 3010 l0 -700 25 0 25 0 0 700 0 700 -25 0 -25 0 0 -700z"/>
<path d="M8640 3010 l0 -700 25 0 25 0 0 700 0 700 -25 0 -25 0 0 -700z"/>
<path d="M6571 3634 c-148 -40 -297 -166 -370 -314 -56 -115 -74 -207 -68
-340 8 -156 52 -278 140 -386 122 -148 263 -217 442 -218 136 0 245 38 353
123 47 38 132 133 132 149 0 4 -9 13 -21 20 -19 12 -23 11 -37 -10 -33 -49
-130 -134 -188 -165 -155 -82 -302 -83 -464 -5 -145 71 -259 224 -295 397 -92
439 299 823 691 681 81 -30 185 -105 232 -167 38 -52 52 -58 72 -34 10 12 7
22 -16 52 -77 102 -183 177 -298 212 -81 25 -222 27 -305 5z"/>
<path d="M3950 3565 l0 -25 420 0 420 0 0 25 0 25 -420 0 -420 0 0 -25z"/>
<path d="M6607 3520 c-145 -37 -279 -165 -335 -323 -36 -101 -38 -260 -4 -360
47 -134 139 -240 261 -300 63 -31 71 -32 187 -32 119 0 121 0 196 37 56 28 92
55 138 104 l62 67 -20 20 -20 20 -56 -60 c-129 -140 -304 -177 -470 -99 -180
83 -286 307 -243 512 31 147 115 261 238 326 61 32 69 33 174 33 101 0 115 -2
170 -29 37 -18 85 -54 123 -93 57 -59 64 -63 82 -50 20 14 19 15 -10 55 -41
57 -134 128 -200 153 -62 24 -211 34 -273 19z"/>
<path d="M3950 3440 l0 -30 115 0 115 0 0 -550 0 -550 25 0 25 0 0 550 0 550
30 0 30 0 0 -550 0 -550 25 0 25 0 0 550 0 550 30 0 30 0 0 -550 0 -550 25 0
25 0 0 550 0 550 30 0 30 0 0 -550 0 -550 25 0 25 0 0 550 0 550 115 0 115 0
0 30 0 30 -420 0 -420 0 0 -30z"/>
<path d="M6613 3392 c-140 -50 -226 -156 -253 -312 -30 -171 60 -354 209 -427
49 -24 68 -28 146 -28 110 0 174 26 248 99 51 52 57 70 28 85 -15 9 -24 3 -50
-29 -47 -58 -143 -102 -224 -102 -113 0 -218 67 -275 177 -38 73 -43 206 -11
290 30 81 113 165 188 190 110 36 234 4 317 -83 40 -41 44 -43 64 -29 21 14
20 15 -30 70 -66 73 -138 107 -234 113 -53 4 -84 0 -123 -14z"/>
<path d="M38 2372 c-27 -25 -31 -36 -31 -76 0 -38 5 -53 27 -74 l26 -27 207
-3 c144 -2 215 0 235 9 50 21 72 88 46 144 -22 50 -49 55 -272 55 l-206 0 -32
-28z"/>
<path d="M3119 2371 c-39 -39 -41 -106 -5 -148 l24 -28 208 -3 c145 -2 216 0
236 9 50 21 72 88 46 144 -22 50 -49 55 -273 55 l-207 0 -29 -29z"/>
<path d="M12735 2000 c-247 -39 -438 -178 -541 -395 -54 -114 -68 -183 -68
-335 0 -152 14 -221 68 -335 89 -188 251 -322 453 -377 109 -29 297 -29 406 0
202 55 364 189 453 377 54 114 68 183 68 335 0 152 -14 221 -68 335 -115 242
-337 385 -620 399 -50 3 -118 1 -151 -4z m230 -404 c64 -30 107 -76 142 -151
26 -55 28 -70 28 -175 0 -105 -2 -120 -28 -175 -55 -117 -140 -175 -257 -175
-117 0 -202 58 -257 175 -26 55 -28 70 -28 175 0 105 2 120 28 175 55 117 140
175 257 175 48 0 78 -7 115 -24z"/>
<path d="M4010 1270 l0 -710 540 0 540 0 0 180 0 180 -325 0 -325 0 0 95 0 95
275 0 275 0 0 170 0 170 -275 0 -275 0 0 85 0 85 315 0 315 0 0 180 0 180
-530 0 -530 0 0 -710z"/>
<path d="M5260 1271 l0 -711 220 0 220 0 0 180 0 181 61 -3 61 -3 108 -175
108 -175 231 -3 c127 -1 231 0 231 3 0 2 -58 99 -130 214 -71 115 -130 214
-130 220 0 6 4 11 10 11 5 0 38 27 73 59 106 100 150 209 151 371 0 52 -6 120
-13 150 -45 181 -175 308 -376 366 -51 14 -118 18 -442 21 l-383 5 0 -711z
m698 319 c75 -34 103 -138 62 -228 -29 -64 -75 -82 -212 -82 l-108 0 0 165 0
165 108 0 c84 0 116 -5 150 -20z"/>
<path d="M6632 1518 c4 -438 6 -467 26 -543 62 -227 202 -368 418 -422 109
-26 306 -22 411 9 195 58 321 189 384 398 22 72 23 92 27 548 l3 472 -215 0
-216 0 0 -428 c0 -465 -3 -499 -56 -570 -35 -45 -73 -62 -144 -62 -71 0 -109
17 -144 62 -53 71 -56 105 -56 570 l0 428 -221 0 -221 0 4 -462z"/>
<path d="M8110 1270 l0 -710 333 0 c182 0 372 5 421 10 299 35 517 215 592
490 14 48 18 102 18 210 0 108 -4 162 -18 210 -75 275 -293 455 -592 490 -49
5 -239 10 -421 10 l-333 0 0 -710z m757 311 c61 -27 116 -83 147 -150 18 -39
21 -65 21 -161 0 -131 -14 -176 -79 -248 -60 -66 -119 -86 -273 -90 l-133 -4
0 342 0 342 133 -4 c111 -3 140 -7 184 -27z"/>
<path d="M9650 1270 l0 -710 220 0 220 0 0 710 0 710 -220 0 -220 0 0 -710z"/>
<path d="M10200 1795 l0 -185 190 0 190 0 0 -525 0 -525 220 0 220 0 0 525 0
525 190 0 190 0 0 185 0 185 -600 0 -600 0 0 -185z"/>
<path d="M11520 1270 l0 -710 220 0 220 0 0 710 0 710 -220 0 -220 0 0 -710z"/>
<path d="M13750 1270 l0 -710 210 0 210 0 0 320 c0 176 3 320 8 320 4 0 116
-144 250 -320 l243 -320 180 0 179 0 0 710 0 710 -210 0 -210 0 0 -320 c0
-176 -3 -320 -7 -320 -5 0 -117 144 -251 320 l-243 320 -180 0 -179 0 0 -710z"/>
<path d="M15230 1665 c0 -174 4 -275 10 -275 6 0 11 97 12 258 l3 257 95 -182
c52 -101 100 -183 106 -183 7 0 -36 90 -93 200 -59 112 -112 200 -119 200 -12
0 -14 -49 -14 -275z"/>
<path d="M15318 1888 c16 -29 64 -119 106 -200 43 -82 82 -148 87 -148 9 0
-169 356 -194 388 -5 6 -14 12 -19 12 -5 0 4 -24 20 -52z"/>
<path d="M15352 1930 c2 -5 48 -95 103 -200 69 -130 105 -189 115 -188 8 2 58
84 110 183 l95 180 5 -260 6 -260 2 278 c1 170 -2 277 -8 277 -5 0 -53 -85
-107 -190 -54 -104 -100 -190 -103 -190 -3 0 -50 86 -105 190 -54 105 -103
190 -108 190 -5 0 -7 -4 -5 -10z"/>
<path d="M15597 1815 c-62 -116 -81 -164 -58 -140 10 10 141 253 141 261 0 2
-4 4 -8 4 -5 0 -39 -56 -75 -125z"/>
<path d="M15707 1918 c-41 -67 -147 -279 -147 -295 0 -10 17 14 38 52 96 176
140 265 131 265 -4 0 -15 -10 -22 -22z"/>
<path d="M15853 1923 c2 -10 35 -134 72 -276 38 -143 73 -256 79 -254 10 3
156 538 149 547 -9 10 -22 -31 -83 -261 -35 -132 -66 -236 -70 -232 -4 4 -35
117 -70 251 -35 133 -68 242 -73 242 -5 0 -7 -8 -4 -17z"/>
<path d="M15902 1923 c3 -10 27 -101 54 -202 27 -101 51 -176 53 -166 4 25
-90 385 -102 385 -5 0 -7 -8 -5 -17z"/>
<path d="M15954 1918 c3 -13 20 -77 37 -143 31 -120 48 -166 49 -135 1 30 -74
300 -83 300 -5 0 -7 -10 -3 -22z"/>
<path d="M16000 1933 c1 -28 58 -214 62 -203 6 19 -42 210 -53 210 -5 0 -9 -3
-9 -7z"/>
<path d="M16176 1888 c-53 -186 -127 -481 -123 -491 7 -17 9 -10 72 233 31
118 63 236 70 263 8 26 10 47 5 47 -5 0 -15 -24 -24 -52z"/>
<path d="M16234 1918 c-33 -106 -138 -528 -131 -525 6 2 38 109 72 238 34 129
67 251 73 272 11 39 -2 53 -14 15z"/>
<path d="M16284 1918 c-33 -105 -138 -528 -131 -525 6 2 23 49 38 106 15 56
29 105 32 108 5 4 16 -28 59 -180 6 -21 16 -36 21 -34 6 2 30 77 54 168 24 90
56 212 72 272 16 59 25 107 20 107 -5 0 -15 -25 -24 -55 -8 -30 -22 -81 -31
-112 l-17 -58 -13 40 c-7 22 -22 73 -34 113 -22 74 -34 88 -46 50z m54 -139
c21 -76 28 -118 22 -132 -10 -26 -9 -27 -49 106 -26 88 -31 137 -12 137 4 0
21 -50 39 -111z m-28 -85 c31 -104 35 -131 21 -152 -11 -19 -75 209 -66 238 4
12 9 20 11 17 2 -2 17 -48 34 -103z m-22 -105 c21 -76 28 -118 22 -132 -10
-27 -11 -25 -49 108 -26 92 -29 135 -12 135 4 0 21 -50 39 -111z"/>
<path d="M16484 1918 c-33 -106 -138 -528 -131 -525 12 4 157 547 146 547 -4
0 -11 -10 -15 -22z"/>
<path d="M16535 1928 c-27 -82 -139 -538 -132 -535 13 4 157 547 145 547 -5 0
-10 -6 -13 -12z"/>
<path d="M16585 1928 c-25 -75 -139 -538 -132 -535 13 4 157 547 145 547 -5 0
-11 -6 -13 -12z"/>
<path d="M15736 1794 c-11 -27 -7 -404 4 -404 6 0 10 77 10 210 0 116 -2 210
-4 210 -2 0 -7 -7 -10 -16z"/>
<path d="M15280 1598 c0 -132 4 -208 10 -208 13 0 13 380 0 400 -6 10 -10 -55
-10 -192z"/>
<path d="M15330 1553 c0 -102 4 -163 10 -163 13 0 13 290 0 310 -6 10 -10 -39
-10 -147z"/>
<path d="M15686 1694 c-10 -27 -7 -304 4 -304 6 0 10 60 10 160 0 88 -2 160
-4 160 -2 0 -7 -7 -10 -16z"/>
<path d="M15380 1503 c0 -69 4 -113 10 -113 13 0 13 190 0 210 -7 10 -10 -21
-10 -97z"/>
<path d="M15637 1603 c-11 -11 -8 -213 3 -213 6 0 10 43 10 110 0 110 -1 116
-13 103z"/>
</g>
</svg>
